# xmcd
#
# Track frame offsets:
#	150
#	17320
#	38202
#	59494
#	83104
#	93572
#	108609
#	121729
#	160783
#	183878
#	212311
#	240696
#	272322
#	288336
#	319578
#
# Disc length: 4397
#
# Revision: 2
# Processed by: cddbd v1.5.1PL0 Copyright (c) Steve Scherf et al.
# Submitted via: CDex 1.51
# Normalized: r1:TDELIM( - )
#
DISCID=ba112b0f
DTITLE=Various Artist - Latinisation of Jazz Piano and Vibraphone
DYEAR=2004
DGENRE=Jazz
TTITLE0=mike velvoin - persuasion
TTITLE1=eddie higgins - brigas nunca mais
TTITLE2=jack wilson - corcovado
TTITLE3=dave pike - serendade
TTITLE4=les mc cann - summer samba
TTITLE5=cal tjader - i'll remember april
TTITLE6=randy weston - fire down there
TTITLE7=herbie hancock - mimosa
TTITLE8=jaki byard - suite 27
TTITLE9=steve kuhn - prelude to a kiss
TTITLE10=andrew hill - mira
TTITLE11=bobby hutcherson - le coiffeur
TTITLE12=sergio mendes - jodel
TTITLE13=bobby timmons - o grand amour
TTITLE14=roy ayers - the shadow of your smile
EXTD=YEAR: 2004
EXTT0=
EXTT1=
EXTT2=
EXTT3=
EXTT4=
EXTT5=
EXTT6=
EXTT7=
EXTT8=
EXTT9=
EXTT10=
EXTT11=
EXTT12=
EXTT13=
EXTT14=
PLAYORDER=
